<mxfile host="app.diagrams.net" modified="2021-05-25T11:35:14.992Z" agent="5.0 (Macintosh; Intel Mac OS X 10_15_0) AppleWebKit/537.36 (KHTML, like Gecko) Chrome/90.0.4430.85 Safari/537.36" etag="A1rehPgyLbwEup05Pul0" version="14.2.9" type="github">
  <diagram id="C5RBs43oDa-KdzZeNtuy" name="Page-1">
    <mxGraphModel dx="946" dy="556" grid="1" gridSize="10" guides="1" tooltips="1" connect="1" arrows="1" fold="1" page="1" pageScale="1" pageWidth="827" pageHeight="1169" math="0" shadow="0">
      <root>
        <mxCell id="WIyWlLk6GJQsqaUBKTNV-0" />
        <mxCell id="WIyWlLk6GJQsqaUBKTNV-1" parent="WIyWlLk6GJQsqaUBKTNV-0" />
        <mxCell id="zkfFHV4jXpPFQw0GAbJ--0" value="Store" style="swimlane;fontStyle=1;align=center;verticalAlign=top;childLayout=stackLayout;horizontal=1;startSize=26;horizontalStack=0;resizeParent=1;resizeLast=0;collapsible=1;marginBottom=0;rounded=0;shadow=0;strokeWidth=1;" parent="WIyWlLk6GJQsqaUBKTNV-1" vertex="1">
          <mxGeometry x="70" y="80" width="330" height="178" as="geometry">
            <mxRectangle x="230" y="140" width="160" height="26" as="alternateBounds" />
          </mxGeometry>
        </mxCell>
        <mxCell id="C6zjm5MqA5VQxVJbvLqM-11" value="&lt;div&gt;Add(obj interface{}) error&lt;/div&gt;&lt;div&gt;Update(obj interface{}) error&lt;/div&gt;&lt;div&gt;Delete(obj interface{}) error&lt;/div&gt;&lt;div&gt;List() []interface{}&lt;/div&gt;&lt;div&gt;ListKeys() []string&lt;/div&gt;&lt;div&gt;Get(obj interface{}) (item interface{}, exists bool, err error)&lt;/div&gt;&lt;div&gt;GetByKey(key string) (item interface{}, exists bool, err error)&lt;/div&gt;&lt;div&gt;Replace([]interface{}, string) error&lt;/div&gt;&lt;div&gt;Resync() error&lt;/div&gt;" style="text;html=1;align=left;verticalAlign=middle;resizable=0;points=[];autosize=1;" vertex="1" parent="zkfFHV4jXpPFQw0GAbJ--0">
          <mxGeometry y="26" width="330" height="130" as="geometry" />
        </mxCell>
        <mxCell id="zkfFHV4jXpPFQw0GAbJ--17" value="ThreadSafeStore" style="swimlane;fontStyle=1;align=center;verticalAlign=top;childLayout=stackLayout;horizontal=1;startSize=26;horizontalStack=0;resizeParent=1;resizeLast=0;collapsible=1;marginBottom=0;rounded=0;shadow=0;strokeWidth=1;" parent="WIyWlLk6GJQsqaUBKTNV-1" vertex="1">
          <mxGeometry x="508" y="80" width="362" height="240" as="geometry">
            <mxRectangle x="550" y="140" width="160" height="26" as="alternateBounds" />
          </mxGeometry>
        </mxCell>
        <mxCell id="C6zjm5MqA5VQxVJbvLqM-14" value="&lt;div&gt;Add(key string, obj interface{})&lt;/div&gt;&lt;div&gt;Update(key string, obj interface{})&lt;/div&gt;&lt;div&gt;Delete(key string)&lt;/div&gt;&lt;div&gt;Get(key string) (item interface{}, exists bool)&lt;/div&gt;&lt;div&gt;List() []interface{}&lt;/div&gt;&lt;div&gt;ListKeys() []string&lt;/div&gt;&lt;div&gt;Replace(map[string]interface{}, string)&lt;/div&gt;&lt;div&gt;Index(indexName string, obj interface{}) ([]interface{}, error)&lt;/div&gt;&lt;div&gt;IndexKeys(indexName, indexKey string) ([]string, error)&lt;/div&gt;&lt;div&gt;ListIndexFuncValues(name string) []string&lt;/div&gt;&lt;div&gt;ByIndex(indexName, indexKey string) ([]interface{}, error)&lt;/div&gt;&lt;div&gt;GetIndexers() Indexers&lt;/div&gt;&lt;div&gt;AddIndexers(newIndexers Indexers) error&lt;/div&gt;&lt;div&gt;Resync() error&lt;/div&gt;" style="text;html=1;align=left;verticalAlign=middle;resizable=0;points=[];autosize=1;" vertex="1" parent="zkfFHV4jXpPFQw0GAbJ--17">
          <mxGeometry y="26" width="362" height="200" as="geometry" />
        </mxCell>
        <mxCell id="C6zjm5MqA5VQxVJbvLqM-0" value="Indexer" style="swimlane;fontStyle=1;align=center;verticalAlign=top;childLayout=stackLayout;horizontal=1;startSize=26;horizontalStack=0;resizeParent=1;resizeLast=0;collapsible=1;marginBottom=0;rounded=0;shadow=0;strokeWidth=1;" vertex="1" parent="WIyWlLk6GJQsqaUBKTNV-1">
          <mxGeometry x="70" y="312" width="330" height="138" as="geometry">
            <mxRectangle x="230" y="140" width="160" height="26" as="alternateBounds" />
          </mxGeometry>
        </mxCell>
        <mxCell id="C6zjm5MqA5VQxVJbvLqM-12" value="&lt;div&gt;Store&lt;/div&gt;&lt;div&gt;Index(indexName string, obj interface{}) ([]interface{}, error)&lt;/div&gt;&lt;div&gt;IndexKeys(indexName, indexedValue string) ([]string, error)&lt;/div&gt;&lt;div&gt;ListIndexFuncValues(indexName string) []string&lt;/div&gt;&lt;div&gt;ByIndex(indexName, indexedValue string) ([]interface{}, error)&lt;/div&gt;&lt;div&gt;GetIndexers() Indexers&lt;/div&gt;&lt;div&gt;AddIndexers(newIndexers Indexers) error&lt;/div&gt;" style="text;html=1;align=left;verticalAlign=middle;resizable=0;points=[];autosize=1;" vertex="1" parent="C6zjm5MqA5VQxVJbvLqM-0">
          <mxGeometry y="26" width="330" height="100" as="geometry" />
        </mxCell>
        <mxCell id="C6zjm5MqA5VQxVJbvLqM-1" value="cache" style="swimlane;fontStyle=1;align=center;verticalAlign=top;childLayout=stackLayout;horizontal=1;startSize=26;horizontalStack=0;resizeParent=1;resizeLast=0;collapsible=1;marginBottom=0;rounded=0;shadow=0;strokeWidth=1;glass=0;fillColor=#f8cecc;strokeColor=#b85450;" vertex="1" parent="WIyWlLk6GJQsqaUBKTNV-1">
          <mxGeometry x="142.5" y="516" width="185" height="56" as="geometry">
            <mxRectangle x="230" y="140" width="160" height="26" as="alternateBounds" />
          </mxGeometry>
        </mxCell>
        <mxCell id="C6zjm5MqA5VQxVJbvLqM-13" value="&lt;div&gt;cacheStorage ThreadSafeStore&lt;/div&gt;&lt;div&gt;keyFunc KeyFunc&lt;/div&gt;" style="text;html=1;align=left;verticalAlign=middle;resizable=0;points=[];autosize=1;fillColor=#f8cecc;strokeColor=#b85450;" vertex="1" parent="C6zjm5MqA5VQxVJbvLqM-1">
          <mxGeometry y="26" width="185" height="30" as="geometry" />
        </mxCell>
        <mxCell id="C6zjm5MqA5VQxVJbvLqM-2" value="threadSafeMap" style="swimlane;fontStyle=1;align=center;verticalAlign=top;childLayout=stackLayout;horizontal=1;startSize=26;horizontalStack=0;resizeParent=1;resizeLast=0;collapsible=1;marginBottom=0;rounded=0;shadow=0;strokeWidth=1;fillColor=#f8cecc;strokeColor=#b85450;" vertex="1" parent="WIyWlLk6GJQsqaUBKTNV-1">
          <mxGeometry x="609" y="470" width="160" height="86" as="geometry">
            <mxRectangle x="230" y="140" width="160" height="26" as="alternateBounds" />
          </mxGeometry>
        </mxCell>
        <mxCell id="C6zjm5MqA5VQxVJbvLqM-16" value="&lt;div&gt;lock&amp;nbsp; sync.RWMutex&lt;/div&gt;&lt;div&gt;items map[string]interface{}&lt;/div&gt;&lt;div&gt;indexers Indexers&lt;/div&gt;&lt;div&gt;indices Indices&lt;/div&gt;" style="text;html=1;align=left;verticalAlign=middle;resizable=0;points=[];autosize=1;fillColor=#f8cecc;strokeColor=#b85450;" vertex="1" parent="C6zjm5MqA5VQxVJbvLqM-2">
          <mxGeometry y="26" width="160" height="60" as="geometry" />
        </mxCell>
        <mxCell id="C6zjm5MqA5VQxVJbvLqM-3" value="继承" style="endArrow=block;endSize=16;endFill=0;html=1;exitX=0.5;exitY=0;exitDx=0;exitDy=0;entryX=0.5;entryY=1;entryDx=0;entryDy=0;" edge="1" parent="WIyWlLk6GJQsqaUBKTNV-1" source="C6zjm5MqA5VQxVJbvLqM-0" target="zkfFHV4jXpPFQw0GAbJ--0">
          <mxGeometry width="160" relative="1" as="geometry">
            <mxPoint x="330" y="420" as="sourcePoint" />
            <mxPoint x="490" y="420" as="targetPoint" />
          </mxGeometry>
        </mxCell>
        <mxCell id="C6zjm5MqA5VQxVJbvLqM-4" value="" style="endArrow=block;dashed=1;endFill=0;endSize=12;html=1;exitX=0.5;exitY=0;exitDx=0;exitDy=0;entryX=0.5;entryY=1;entryDx=0;entryDy=0;" edge="1" parent="WIyWlLk6GJQsqaUBKTNV-1" source="C6zjm5MqA5VQxVJbvLqM-1" target="C6zjm5MqA5VQxVJbvLqM-0">
          <mxGeometry width="160" relative="1" as="geometry">
            <mxPoint x="330" y="420" as="sourcePoint" />
            <mxPoint x="490" y="420" as="targetPoint" />
          </mxGeometry>
        </mxCell>
        <mxCell id="C6zjm5MqA5VQxVJbvLqM-5" value="实现" style="text;html=1;align=center;verticalAlign=middle;resizable=0;points=[];autosize=1;" vertex="1" parent="WIyWlLk6GJQsqaUBKTNV-1">
          <mxGeometry x="300" y="480" width="40" height="20" as="geometry" />
        </mxCell>
        <mxCell id="C6zjm5MqA5VQxVJbvLqM-6" value="使用" style="endArrow=open;endSize=12;dashed=1;html=1;entryX=0;entryY=0.5;entryDx=0;entryDy=0;exitX=1.014;exitY=0.267;exitDx=0;exitDy=0;exitPerimeter=0;" edge="1" parent="WIyWlLk6GJQsqaUBKTNV-1" source="C6zjm5MqA5VQxVJbvLqM-13" target="zkfFHV4jXpPFQw0GAbJ--17">
          <mxGeometry x="0.0204" width="160" relative="1" as="geometry">
            <mxPoint x="350" y="550" as="sourcePoint" />
            <mxPoint x="490" y="420" as="targetPoint" />
            <Array as="points">
              <mxPoint x="450" y="550" />
              <mxPoint x="450" y="200" />
            </Array>
            <mxPoint as="offset" />
          </mxGeometry>
        </mxCell>
        <mxCell id="C6zjm5MqA5VQxVJbvLqM-7" value="" style="endArrow=block;dashed=1;endFill=0;endSize=12;html=1;exitX=0.5;exitY=0;exitDx=0;exitDy=0;entryX=0.5;entryY=1;entryDx=0;entryDy=0;" edge="1" parent="WIyWlLk6GJQsqaUBKTNV-1" source="C6zjm5MqA5VQxVJbvLqM-2" target="zkfFHV4jXpPFQw0GAbJ--17">
          <mxGeometry width="160" relative="1" as="geometry">
            <mxPoint x="330" y="420" as="sourcePoint" />
            <mxPoint x="490" y="420" as="targetPoint" />
          </mxGeometry>
        </mxCell>
        <mxCell id="C6zjm5MqA5VQxVJbvLqM-8" value="实现" style="text;html=1;align=center;verticalAlign=middle;resizable=0;points=[];autosize=1;" vertex="1" parent="WIyWlLk6GJQsqaUBKTNV-1">
          <mxGeometry x="650" y="400" width="40" height="20" as="geometry" />
        </mxCell>
        <mxCell id="C6zjm5MqA5VQxVJbvLqM-9" value="&lt;pre style=&quot;background-color: #2b2b2b ; color: #a9b7c6 ; font-family: &amp;#34;jetbrains mono&amp;#34; ; font-size: 9.8pt&quot;&gt;&lt;br&gt;&lt;/pre&gt;" style="text;html=1;align=center;verticalAlign=middle;resizable=0;points=[];autosize=1;" vertex="1" parent="WIyWlLk6GJQsqaUBKTNV-1">
          <mxGeometry x="210" y="325" width="20" height="50" as="geometry" />
        </mxCell>
      </root>
    </mxGraphModel>
  </diagram>
</mxfile>
